<?xml version="1.0" standalone="no"?>
<!DOCTYPE svg PUBLIC "-//W3C//DTD SVG 20010904//EN"
 "http://www.w3.org/TR/2001/REC-SVG-20010904/DTD/svg10.dtd">
<svg version="1.0" xmlns="http://www.w3.org/2000/svg"
 width="600.000000pt" height="600.000000pt" viewBox="0 0 600.000000 600.000000"
 preserveAspectRatio="xMidYMid meet">
<metadata>
Created by potrace 1.11, written by Peter Selinger 2001-2013
</metadata>
<g transform="translate(0.000000,600.000000) scale(0.100000,-0.100000)"
fill="#000000" stroke="none">
<path d="M1376 5815 c3 -27 14 -74 23 -102 10 -29 16 -53 14 -53 -2 0 -21 28
-43 62 -22 33 -40 59 -40 56 0 -3 9 -47 20 -99 11 -52 20 -103 20 -113 0 -20
0 -20 -15 0 -21 28 -18 9 7 -39 12 -23 22 -49 23 -57 3 -22 76 -182 93 -203
30 -35 5 -25 -57 24 -61 47 -81 57 -81 42 0 -5 11 -50 25 -101 27 -103 29
-114 15 -92 -19 30 -10 -10 20 -89 17 -43 37 -102 45 -132 8 -30 30 -106 49
-169 19 -63 33 -116 31 -118 -2 -2 -21 8 -44 22 -22 14 -43 26 -45 26 -2 0 12
-26 33 -57 31 -48 63 -113 98 -200 4 -9 -5 -9 -32 3 -20 8 -41 14 -46 12 -10
-4 98 -185 146 -243 39 -48 39 -48 -30 -77 -31 -13 -35 -17 -17 -17 13 -1 37
-8 54 -17 l31 -16 -27 -17 c-34 -20 -40 -44 -27 -103 6 -26 8 -67 5 -92 -8
-53 9 -102 37 -111 15 -5 19 -16 19 -49 0 -23 -7 -51 -15 -62 -20 -26 -19 -40
2 -23 15 13 16 11 10 -11 -22 -88 -35 -150 -31 -150 2 0 10 15 18 33 13 30 14
23 15 -98 0 -111 -3 -140 -23 -198 -23 -67 -23 -68 -2 -42 l21 26 -6 -103 c-3
-57 -11 -116 -17 -131 -16 -37 -15 -42 3 -27 13 11 15 7 15 -25 0 -23 -7 -47
-17 -58 -14 -14 -18 -34 -16 -80 1 -50 -2 -65 -18 -80 -25 -24 -24 -55 4 -96
l23 -34 -29 -81 c-65 -184 -120 -456 -139 -683 -11 -134 -3 -308 19 -441 5
-28 3 -32 -17 -32 -28 0 -60 -17 -60 -33 0 -7 9 -30 19 -51 29 -56 35 -129 17
-214 -20 -91 -20 -188 -2 -224 8 -15 17 -42 21 -60 17 -88 78 -238 95 -238 5
0 7 50 3 115 -6 109 -5 115 13 115 10 0 28 3 39 6 16 4 23 -2 33 -29 7 -18 12
-47 12 -63 0 -65 78 -284 101 -284 4 0 5 61 2 135 l-6 135 32 0 c72 0 131 56
131 126 0 39 3 44 23 44 34 0 82 34 96 69 31 73 -16 147 -110 174 -80 24 -126
69 -134 132 l-6 50 46 -53 c89 -100 262 -201 410 -240 60 -15 71 -22 96 -59
38 -55 50 -87 58 -152 6 -51 8 -55 39 -63 17 -5 32 -11 32 -14 0 -2 -9 -22
-20 -43 -16 -33 -26 -40 -60 -46 -22 -4 -40 -10 -40 -15 0 -4 -16 -11 -35 -14
-19 -4 -35 -11 -35 -17 0 -6 -5 -7 -10 -4 -14 9 -57 -19 -98 -62 -42 -45 -40
-74 7 -89 21 -7 30 -14 22 -18 -7 -4 -19 -2 -27 5 -8 6 -17 9 -20 6 -9 -9 6
-27 22 -27 8 0 13 -4 10 -9 -3 -4 5 -7 17 -7 32 3 84 -24 66 -34 -15 -10 -32
-3 -24 10 6 10 -16 19 -33 12 -9 -3 -4 -10 15 -21 43 -26 63 -32 57 -17 -3 7
1 16 8 18 17 7 58 -9 58 -22 0 -5 4 -10 10 -10 6 0 6 9 1 23 -5 13 -16 21 -25
19 -9 -2 -19 5 -23 15 -4 10 -11 21 -17 25 -6 4 -1 6 12 5 14 -1 21 -6 18 -14
-3 -7 1 -13 9 -13 8 0 15 5 15 11 0 8 4 8 14 -1 8 -6 12 -18 9 -26 -3 -8 0
-21 7 -29 14 -17 30 -20 30 -5 0 5 -5 9 -11 7 -6 -1 -14 4 -17 12 -2 8 0 11 6
7 16 -10 8 19 -11 39 -14 13 -15 20 -6 31 6 8 15 11 20 8 5 -2 25 -7 46 -9 79
-9 103 -16 113 -33 10 -15 11 -15 6 0 -7 22 4 30 22 15 13 -9 14 -9 8 1 -5 8
0 12 13 13 26 2 24 1 95 24 40 14 66 29 82 51 14 18 37 34 54 38 24 4 30 11
30 30 0 13 6 27 12 29 10 4 10 6 1 6 -9 1 -13 23 -13 78 0 62 4 81 19 97 11
12 26 55 36 101 9 44 17 81 19 82 6 7 96 20 101 15 3 -3 5 -30 5 -61 0 -72 16
-128 41 -144 17 -10 19 -24 19 -119 0 -88 3 -108 15 -108 8 0 36 -20 63 -44
66 -58 148 -81 265 -74 116 8 141 21 145 77 4 60 -3 85 -37 123 -32 38 -61 90
-61 112 0 8 10 16 22 18 19 3 24 13 34 70 14 75 52 153 93 191 14 13 60 34
101 46 162 47 278 103 363 173 l47 39 0 -34 c0 -64 -46 -108 -173 -161 -76
-32 -102 -132 -49 -186 16 -16 44 -31 63 -35 33 -6 34 -8 34 -55 0 -38 5 -54
24 -74 27 -29 91 -50 128 -43 22 4 23 2 22 -62 0 -36 -4 -87 -8 -114 -4 -26
-4 -47 1 -47 27 0 92 173 104 276 l7 56 36 -6 c20 -3 42 -6 49 -6 14 0 15 -58
3 -133 -6 -33 -5 -47 3 -44 17 5 62 103 86 187 42 145 42 147 21 265 -21 124
-16 188 21 250 24 41 15 60 -34 70 -25 6 -29 11 -24 30 23 93 32 387 16 560
-23 246 -63 411 -136 566 l-46 95 26 39 c31 45 33 85 6 110 -17 15 -19 26 -13
75 5 54 4 60 -23 86 -22 23 -29 40 -32 84 l-4 55 30 -29 31 -29 -19 62 c-24
80 -43 189 -39 221 4 24 5 24 28 -13 13 -21 25 -37 26 -35 2 2 -6 30 -17 63
-15 44 -22 95 -26 193 -2 72 -2 132 2 132 3 0 12 -15 20 -32 20 -47 19 -15 -3
70 -19 73 -19 73 0 56 25 -23 24 -15 -5 36 l-24 43 35 33 c35 33 36 36 30 91
-3 31 -1 79 4 105 15 67 6 97 -31 105 -35 7 -40 23 -7 24 12 0 16 3 9 6 -23 9
7 33 51 40 l39 6 -47 18 c-26 10 -49 20 -52 22 -2 3 18 36 46 73 71 99 143
224 128 224 -7 0 -29 -9 -50 -19 -20 -10 -37 -17 -37 -16 0 14 96 206 116 233
14 18 24 35 22 37 -2 3 -21 -7 -42 -21 -21 -14 -39 -24 -41 -22 -5 5 74 297
92 337 27 64 63 174 58 179 -3 3 -10 -9 -16 -27 -23 -67 -17 -21 11 84 16 60
27 111 25 113 -3 3 -23 -8 -46 -23 l-42 -27 41 48 c39 47 98 151 90 160 -2 2
-19 0 -36 -5 -26 -8 -32 -7 -32 5 0 25 27 81 74 154 25 39 46 73 46 76 0 3
-15 -6 -32 -19 -33 -25 -131 -77 -144 -77 -4 0 11 13 33 29 39 28 113 110 113
125 0 4 -21 -11 -47 -34 -63 -55 -168 -117 -248 -146 -36 -13 -65 -22 -65 -19
0 2 19 23 43 46 23 23 31 34 17 25 -67 -43 -209 -126 -240 -139 -19 -8 -82
-20 -140 -25 -116 -12 -608 -107 -757 -147 -52 -14 -123 -37 -159 -51 -83 -33
-133 -29 -274 20 -57 20 -172 50 -255 67 -82 17 -204 50 -270 74 -85 31 -166
51 -280 69 -232 38 -315 66 -377 124 -15 14 -30 23 -34 20 -8 -9 22 -62 57
-103 17 -19 27 -35 21 -35 -21 0 -159 99 -199 142 -45 49 -68 88 -89 152 l-14
41 6 -50z m2150 -856 c67 -20 194 -79 223 -102 12 -9 13 -9 7 1 -12 20 4 14
45 -18 56 -45 128 -146 135 -189 5 -34 10 -38 49 -49 64 -17 106 -60 148 -150
44 -93 65 -184 69 -304 3 -80 1 -87 -17 -90 -11 -2 -136 -2 -277 0 l-257 4 -3
37 c-3 33 -6 37 -49 51 -42 13 -50 21 -85 84 -64 113 -229 226 -382 262 -88
21 -234 14 -322 -14 -142 -47 -279 -157 -354 -285 -21 -37 -45 -67 -52 -67
-25 0 -62 -23 -67 -41 -5 -18 -17 -19 -174 -19 -94 0 -225 -3 -293 -7 l-123
-6 7 102 c9 124 35 233 77 311 39 73 73 106 135 129 40 16 50 24 55 49 12 58
58 120 122 165 144 102 279 157 381 157 78 0 227 -37 323 -80 l72 -32 -37 -46
c-33 -42 -34 -44 -8 -24 18 14 43 22 66 22 31 0 44 -7 73 -40 36 -39 67 -93
93 -159 l14 -36 -6 55 c-3 30 -14 84 -25 119 -10 35 -19 73 -19 85 0 38 57 23
103 -27 l39 -42 -34 65 c-18 36 -34 68 -36 71 -6 13 181 63 268 72 19 2 38 5
41 5 4 1 38 -7 75 -19z m221 -81 c8 -14 -55 23 -70 40 -6 8 6 4 26 -8 20 -12
40 -27 44 -32z m-619 -573 c135 -41 263 -189 291 -338 l8 -47 -432 0 -432 0 9
53 c29 167 181 317 350 346 60 10 142 4 206 -14z m483 -175 c10 -6 19 -17 19
-26 0 -11 -3 -12 -12 -4 -7 6 -22 17 -33 25 -23 17 -4 20 26 5z m-1227 -29
c-10 -10 -21 -16 -24 -14 -3 3 4 11 14 19 28 20 33 17 10 -5z m-17 -103 c-3
-8 -6 -5 -6 6 -1 11 2 17 5 13 3 -3 4 -12 1 -19z m457 -133 c9 -46 65 -101
116 -115 80 -22 164 24 196 105 l17 45 138 0 139 0 0 -28 c0 -47 -29 -142 -62
-204 -58 -109 -183 -196 -317 -219 -73 -13 -169 5 -253 47 -119 60 -216 205
-226 336 l-5 68 126 0 125 0 6 -35z m91 13 c15 -34 56 -50 93 -37 33 11 51 37
25 35 -9 0 -18 5 -20 12 -3 9 12 12 55 12 l61 0 -9 -29 c-13 -47 -30 -71 -63
-91 -81 -50 -189 -2 -212 93 -7 25 -5 27 27 27 25 0 36 -6 43 -22z m885 -123
c-145 -17 -156 -17 -144 -6 13 13 55 18 164 18 l95 1 -115 -13z m307 -16 c36
-6 67 -17 69 -24 6 -15 -40 -120 -78 -181 -61 -96 -53 -150 31 -203 28 -18 51
-34 51 -36 0 -6 -91 15 -124 29 -20 8 -36 11 -36 7 0 -4 32 -37 72 -72 51 -46
67 -65 55 -67 -21 -4 -112 37 -172 78 -25 17 -45 27 -45 22 0 -5 27 -42 61
-81 33 -40 58 -75 55 -79 -4 -3 -39 4 -79 15 l-72 22 35 -30 c33 -28 33 -29 8
-19 -30 10 -36 2 -16 -18 10 -10 6 -10 -20 -1 -18 6 -35 15 -38 20 -3 5 -10 9
-17 9 -8 0 -8 -3 1 -12 23 -23 12 -28 -17 -7 -46 34 -59 19 -21 -24 36 -41 25
-48 -33 -18 -41 21 -48 11 -21 -28 16 -23 16 -23 -6 -11 -27 15 -37 6 -19 -16
13 -16 11 -16 -19 0 -40 20 -48 16 -32 -15 13 -24 15 -23 -39 -1 -10 4 -12 1
-6 -7 6 -10 2 -11 -15 -6 -16 5 -20 4 -15 -5 4 -6 -11 -2 -34 9 -40 21 -53 17
-29 -7 8 -8 2 -10 -28 -5 -29 5 -56 22 -106 68 -49 43 -90 70 -145 93 -42 18
-78 30 -80 28 -2 -2 21 -18 52 -35 75 -43 201 -165 265 -258 45 -64 49 -74 30
-68 -22 7 -21 5 10 -51 61 -110 90 -168 90 -179 0 -7 -21 -15 -46 -19 -50 -6
-170 -60 -279 -124 l-70 -42 74 0 c41 0 134 9 205 20 225 34 260 39 263 37 1
-2 -84 -50 -190 -107 -178 -97 -200 -107 -302 -128 -86 -18 -144 -23 -265 -24
-248 -1 -408 40 -666 170 -91 46 -121 67 -108 74 5 3 79 -5 164 -18 85 -13
191 -23 235 -24 l80 0 -80 46 c-119 69 -219 114 -270 121 -29 4 -45 11 -45 20
0 17 36 89 84 169 41 68 44 79 15 64 -18 -10 -19 -9 -11 7 24 44 110 152 161
202 30 30 89 76 130 103 92 60 97 65 46 43 -22 -9 -62 -26 -90 -36 -32 -13
-74 -44 -115 -84 -52 -50 -73 -64 -102 -67 -40 -4 -46 0 -26 20 16 16 3 15
-32 -3 -18 -10 -30 -11 -30 -5 0 8 -6 8 -20 0 -16 -9 -19 -8 -13 6 5 15 3 15
-26 0 -33 -18 -37 -15 -21 15 13 24 -6 26 -38 3 -23 -16 -30 -6 -10 14 15 15
3 16 -23 1 -20 -10 -20 -9 -5 20 22 42 21 44 -24 21 -57 -29 -65 -25 -31 17
37 45 26 54 -27 23 -33 -20 -35 -20 -20 -3 27 30 21 35 -14 13 -42 -26 -67
-27 -47 -4 12 15 11 16 -11 10 -24 -7 -24 -6 5 18 34 29 31 32 -16 12 -41 -16
-109 -27 -109 -18 0 4 27 39 60 77 57 67 74 95 48 79 -7 -4 -36 -22 -64 -40
-57 -36 -119 -64 -142 -64 -10 0 14 31 58 76 41 42 66 73 55 69 -75 -28 -106
-36 -122 -33 -14 3 -10 8 16 22 95 50 104 103 35 220 -48 82 -74 145 -74 179
0 20 3 20 253 14 138 -4 262 -9 273 -13 14 -3 24 -17 27 -34 4 -20 15 -31 38
-39 17 -6 34 -9 38 -7 4 3 22 -26 41 -62 21 -42 61 -94 105 -138 199 -200 516
-240 753 -97 93 57 184 151 229 239 32 62 44 76 76 89 20 8 37 22 37 30 0 8 3
15 8 16 4 0 54 6 112 14 134 16 256 18 337 4z m-733 -277 c-45 -42 -114 -90
-114 -79 0 2 24 20 53 40 30 21 64 48 77 62 13 14 26 25 29 25 3 -1 -17 -22
-45 -48z m-774 -27 c13 -14 21 -25 18 -25 -2 0 -15 11 -28 25 -13 14 -21 25
-18 25 2 0 15 -11 28 -25z m770 -29 c0 -2 -12 -11 -27 -20 l-28 -17 24 20 c23
21 31 25 31 17z m936 -662 c-5 -42 -2 -56 14 -77 38 -47 21 -84 -75 -167 -98
-85 -255 -242 -285 -285 -44 -64 -53 -107 -48 -221 4 -88 9 -110 34 -160 61
-122 144 -130 271 -28 l41 34 8 -67 c9 -85 -1 -331 -16 -401 -7 -29 -18 -58
-25 -66 -7 -7 -67 -35 -134 -62 -66 -27 -116 -51 -111 -54 16 -10 -85 -41
-105 -34 -13 5 -16 4 -10 -5 6 -10 2 -11 -15 -6 -17 5 -21 4 -15 -6 6 -9 3
-11 -9 -6 -9 4 -54 -4 -99 -17 -168 -49 -366 -87 -575 -109 -42 -5 -43 -4 -59
34 -21 54 -56 79 -110 79 -73 0 -133 -46 -133 -101 0 -21 -2 -21 -102 -15
-317 22 -572 87 -824 211 -71 35 -138 73 -148 84 -25 27 -64 146 -76 232 -10
68 -8 165 6 262 l6 37 36 -29 c77 -59 136 -78 186 -57 74 31 118 137 120 290
2 129 -15 159 -178 321 -72 72 -157 153 -188 181 -68 61 -80 95 -48 129 17 18
21 34 20 72 -4 75 -2 80 18 53 37 -52 482 -490 562 -554 200 -159 434 -297
589 -347 l67 -22 -4 -93 c-4 -74 -1 -99 12 -118 15 -23 14 -28 -8 -73 -40 -79
-42 -98 -12 -127 51 -52 96 -30 142 70 34 74 43 131 25 150 -6 5 -11 49 -12
98 l-2 88 71 28 c236 92 502 281 821 584 70 66 175 159 232 206 77 63 107 94
114 118 9 31 10 32 23 15 9 -12 12 -34 8 -69z m-2365 -191 c27 -32 196 -137
323 -199 295 -144 634 -210 901 -175 238 32 493 124 668 243 80 54 59 29 -74
-88 -224 -197 -449 -348 -633 -425 -90 -37 -98 -39 -118 -24 -13 8 -32 15 -43
14 -16 0 -14 -3 8 -11 27 -10 37 -28 15 -28 -26 0 -58 13 -53 20 3 5 -3 6 -13
3 -24 -6 -185 56 -282 109 -151 82 -329 207 -465 327 -97 86 -266 251 -257
251 5 0 16 -8 23 -17z m-162 -128 c108 -94 204 -202 235 -262 32 -63 17 -261
-25 -345 -46 -90 -116 -90 -228 0 -42 34 -43 37 -37 79 5 39 47 173 71 227 6
14 5 18 -6 14 -19 -6 -76 -174 -96 -282 -23 -129 -23 -343 1 -421 16 -54 22
-172 9 -185 -2 -3 -38 -5 -79 -5 -87 0 -88 1 -104 93 -53 304 -20 665 96 1050
31 104 42 132 50 132 3 0 54 -43 113 -95z m2631 -216 c47 -184 64 -321 64
-539 1 -203 -17 -407 -39 -437 -10 -14 -30 -17 -103 -18 -52 0 -96 5 -102 11
-7 7 -3 26 14 65 35 76 46 159 46 349 -1 223 -31 374 -89 450 -30 38 -34 18
-6 -32 13 -24 33 -80 43 -123 l19 -80 -46 -36 c-101 -79 -153 -89 -206 -36
-41 41 -64 114 -72 228 -4 65 -2 97 11 135 21 63 105 162 238 281 l103 92 47
-98 c27 -56 61 -147 78 -212z m-1392 -444 c2 -66 -1 -93 -13 -111 -18 -28 -14
-31 10 -7 14 14 18 14 26 2 11 -17 6 -34 -36 -125 -43 -94 -81 -107 -117 -41
-8 16 -4 32 18 78 23 49 32 59 53 60 l26 1 -26 9 c-14 5 -31 21 -38 35 -11 25
-16 176 -5 186 3 3 26 4 52 3 l47 -3 3 -87z m-1268 -478 c0 -5 -4 -5 -10 -2
-5 3 -10 14 -10 23 0 15 2 15 10 2 5 -8 10 -19 10 -23z m2345 -61 c-53 -25
-103 -42 -95 -33 7 8 123 55 135 55 6 0 -12 -10 -40 -22z m-1042 -156 c15 -17
27 -39 27 -50 0 -19 -7 -20 -106 -20 l-106 0 7 28 c21 83 119 107 178 42z
m1419 -62 c7 -24 13 -94 13 -158 0 -94 -4 -130 -24 -193 -13 -43 -27 -79 -30
-81 -3 -2 -5 46 -3 107 2 78 -2 133 -13 182 -28 122 -28 128 -5 158 30 38 47
34 62 -15z m-2903 -7 c25 -35 26 -46 5 -102 -11 -29 -19 -94 -23 -194 l-6
-150 -24 75 c-30 91 -40 245 -21 329 7 31 14 59 17 64 9 15 32 6 52 -22z m-98
-101 c-8 -59 -9 -61 -10 -20 -1 43 8 94 15 87 2 -1 -1 -32 -5 -67z m2801 -27
c8 -24 13 -84 13 -158 0 -97 -4 -134 -23 -192 -12 -40 -26 -74 -30 -76 -4 -3
-7 61 -8 142 0 122 -4 154 -21 197 -21 53 -19 67 15 107 23 26 39 21 54 -20z
m-2498 -20 c20 -29 23 -40 14 -56 -24 -45 -31 -89 -37 -232 l-6 -150 -25 75
c-22 66 -25 92 -25 210 1 187 25 233 79 153z m2543 -120 c-3 -10 -5 -4 -5 12
0 17 2 24 5 18 2 -7 2 -21 0 -30z m-1960 -250 c-4 -3 -2 -12 5 -20 8 -11 7
-12 -6 -7 -9 3 -16 9 -16 13 0 9 11 21 18 21 3 0 2 -3 -1 -7z m-46 -40 c13
-15 12 -15 -8 -4 -24 12 -29 21 -14 21 5 0 15 -7 22 -17z m-11 -35 c0 -4 -9
-8 -21 -8 -11 0 -18 4 -15 8 3 5 12 9 21 9 8 0 15 -4 15 -9z m25 -18 c-3 -5
-12 -10 -18 -10 -7 0 -6 4 3 10 19 12 23 12 15 0z m-66 -14 c11 -14 6 -15 -27
-7 -4 1 8 21 12 21 2 0 9 -6 15 -14z m118 -28 c-3 -8 -6 -5 -6 6 -1 11 2 17 5
13 3 -3 4 -12 1 -19z m-81 -7 c11 9 18 8 29 -1 9 -7 13 -15 10 -18 -2 -3 -11
1 -20 8 -12 10 -16 9 -21 -5 -5 -13 -9 -14 -15 -3 -5 7 -8 18 -8 23 0 6 3 4 6
-3 4 -10 8 -10 19 -1z m-28 -36 c-3 -3 -9 2 -12 12 -6 14 -5 15 5 6 7 -7 10
-15 7 -18z m40 -33 c6 -18 -15 -14 -22 4 -4 10 -1 14 6 12 6 -2 14 -10 16 -16z"/>
<path d="M2943 3077 c-18 -7 -38 -18 -45 -26 -11 -12 -10 -13 7 -6 69 27 96
29 143 13 60 -22 68 -14 11 12 -50 22 -70 23 -116 7z"/>
<path d="M2995 570 c3 -5 8 -10 11 -10 2 0 4 5 4 10 0 6 -5 10 -11 10 -5 0 -7
-4 -4 -10z"/>
<path d="M3040 569 c0 -5 5 -7 10 -4 6 3 10 8 10 11 0 2 -4 4 -10 4 -5 0 -10
-5 -10 -11z"/>
<path d="M2910 520 c-12 -7 -10 -9 7 -7 12 0 19 5 17 9 -6 10 -6 10 -24 -2z"/>
<path d="M2900 490 c0 -5 5 -10 11 -10 5 0 7 5 4 10 -3 6 -8 10 -11 10 -2 0
-4 -4 -4 -10z"/>
<path d="M3025 469 c-4 -6 -5 -12 -2 -15 2 -3 7 2 10 11 7 17 1 20 -8 4z"/>
<path d="M2390 320 c0 -6 7 -13 15 -17 24 -9 27 1 5 15 -13 8 -20 8 -20 2z"/>
<path d="M2688 323 c7 -3 16 -2 19 1 4 3 -2 6 -13 5 -11 0 -14 -3 -6 -6z"/>
<path d="M2486 300 c12 -17 12 -30 0 -48 -4 -7 -5 -16 -2 -19 3 -4 6 -1 6 6 0
7 5 9 10 6 18 -11 11 42 -7 56 -16 12 -17 12 -7 -1z"/>
<path d="M2629 288 c14 -19 32 -15 30 5 0 8 -2 8 -6 -1 -4 -10 -8 -10 -21 0
-15 12 -16 11 -3 -4z"/>
<path d="M2595 250 c3 -5 8 -10 11 -10 2 0 4 5 4 10 0 6 -5 10 -11 10 -5 0 -7
-4 -4 -10z"/>
<path d="M2332 224 c-7 -8 -8 -14 -3 -14 10 0 25 19 20 25 -2 1 -10 -3 -17
-11z"/>
<path d="M2513 225 c-7 -8 -9 -16 -5 -19 4 -3 13 4 20 15 14 22 3 25 -15 4z"/>
<path d="M2440 210 c0 -5 5 -10 11 -10 5 0 7 5 4 10 -3 6 -8 10 -11 10 -2 0
-4 -4 -4 -10z"/>
<path d="M2367 197 c3 -5 16 -6 30 -2 18 4 23 2 17 -6 -5 -8 -3 -9 5 -5 7 5 9
11 6 15 -10 9 -64 7 -58 -2z"/>
<path d="M2445 180 c-3 -6 1 -7 9 -4 18 7 21 14 7 14 -6 0 -13 -4 -16 -10z"/>
</g>
</svg>
